<svg width="133" height="35" viewBox="0 0 133 35" fill="none" xmlns="http://www.w3.org/2000/svg">
<g clip-path="url(#clip0_557_2584)">
<path fill-rule="evenodd" clip-rule="evenodd" d="M91.5002 25.0658C92.7051 25.8286 94.0873 26.2011 95.6289 26.2011C96.887 26.2011 98.021 25.935 99.0311 25.4561C99.9021 24.9889 100.637 24.3714 101.211 23.5916V25.8463H104.4V0.815918H101.211V11.5265C100.634 10.7476 99.8914 10.1222 98.9956 9.65018C97.9856 9.11799 96.8693 8.8519 95.6289 8.8519C94.0873 8.8519 92.7228 9.22443 91.5002 10.005C90.2952 10.7678 89.3207 11.8144 88.6119 13.1271C87.9031 14.4398 87.5487 15.9122 87.5487 17.5442C87.5487 19.1763 87.9031 20.6487 88.6119 21.9614C89.3207 23.2741 90.2775 24.303 91.5002 25.0658ZM98.907 22.4581C98.1274 22.9548 97.2059 23.2031 96.1605 23.2031C95.115 23.2031 94.1759 22.9725 93.3785 22.4581C92.5634 21.9614 91.9432 21.2873 91.4825 20.4358C91.0218 19.5843 90.7914 18.5909 90.7914 17.4733C90.7914 16.3734 91.0218 15.3978 91.4825 14.5463C91.9432 13.6948 92.5634 13.0207 93.3608 12.524C94.1581 12.0273 95.0796 11.7789 96.125 11.7789C97.1705 11.7789 98.0919 12.0273 98.8716 12.524C99.6513 13.0207 100.271 13.6948 100.732 14.5285C101.193 15.3623 101.423 16.3557 101.423 17.5088C101.423 18.6086 101.193 19.5843 100.75 20.4358C100.307 21.2873 99.6867 21.9614 98.907 22.4581ZM60.1364 26.2011C59.1972 26.2011 58.3112 26.0769 57.4961 25.8286C56.6633 25.5802 55.9013 25.2254 55.1926 24.7819C54.4838 24.3385 53.8813 23.7885 53.3674 23.1499L55.4052 21.1099C56.0077 21.8549 56.7165 22.4226 57.5139 22.7774C58.3112 23.1322 59.1972 23.3273 60.1718 23.3273C61.1464 23.3273 61.9083 23.1499 62.4576 22.8129C62.9892 22.4758 63.255 21.9969 63.255 21.3937C63.255 20.7906 63.0424 20.3116 62.5994 19.9746C62.1741 19.6375 61.6071 19.3537 60.9338 19.1408C60.3772 18.9502 59.7843 18.7717 59.1651 18.5853C59.0352 18.5461 58.9041 18.5067 58.772 18.4667C58.01 18.2361 57.3012 17.9522 56.6101 17.6152C55.9368 17.2604 55.3698 16.7814 54.9445 16.1783C54.5192 15.5752 54.2888 14.7591 54.2888 13.7657C54.2888 12.7546 54.5369 11.8853 55.0331 11.158C55.5292 10.413 56.2026 9.86304 57.0886 9.45503C57.9568 9.06476 59.02 8.85188 60.2604 8.85188C61.5717 8.85188 62.7234 9.0825 63.7512 9.54373C64.7789 10.005 65.594 10.679 66.2497 11.6015L64.2119 13.6415C63.7512 13.0384 63.1665 12.5594 62.4754 12.2401C61.7843 11.9208 61.0046 11.7434 60.1364 11.7434C59.2327 11.7434 58.5239 11.9031 58.0454 12.2224C57.567 12.5417 57.3189 12.9852 57.3189 13.5351C57.3189 14.085 57.5316 14.5285 57.9568 14.8301C58.3821 15.1317 58.9314 15.3977 59.6225 15.6106C60.149 15.7728 60.6857 15.935 61.2484 16.105L61.2486 16.105L61.249 16.1052L61.2491 16.1052L61.7843 16.267C62.5285 16.4976 63.2373 16.7814 63.9284 17.154C64.6017 17.5265 65.1688 18.0232 65.5941 18.6618C66.0193 19.3004 66.2497 20.1165 66.2497 21.1454C66.2497 22.7064 65.7004 23.9482 64.584 24.8706C63.4854 25.7399 61.9969 26.2011 60.1364 26.2011ZM77.5195 26.2011C75.8539 26.2011 74.3654 25.8286 73.0365 25.0658C71.7075 24.303 70.662 23.2741 69.8823 21.9614C69.1027 20.6486 68.7306 19.1585 68.7306 17.5088C68.7306 15.8767 69.1027 14.4043 69.8646 13.0916C70.6266 11.7789 71.6543 10.75 72.9479 9.98721C74.2414 9.22442 75.6944 8.85188 77.3069 8.85188C78.8485 8.85188 80.213 9.20668 81.3825 9.89852C82.5697 10.6081 83.4911 11.566 84.1467 12.8078C84.8201 14.0496 85.139 15.451 85.139 17.012C85.139 17.2152 85.1253 17.4321 85.1099 17.6749V17.6749V17.675V17.675L85.1036 17.7749C85.0859 18.0409 85.0327 18.3602 84.9618 18.6973H71.9361C72.0471 19.3459 72.2471 19.9385 72.5403 20.4712C73.001 21.3405 73.6744 22.0323 74.5426 22.5113C75.4109 22.9903 76.4032 23.2386 77.5195 23.2386C78.4587 23.2386 79.3092 23.079 80.0889 22.7419C80.8686 22.4226 81.5419 21.9259 82.109 21.2695L84.1467 23.3451C83.3493 24.2852 82.3748 24.9948 81.223 25.4915C80.0535 25.9528 78.8308 26.2011 77.5195 26.2011ZM72.5049 14.4221C72.2435 14.9139 72.0562 15.4675 71.9465 16.0719H82.0855C82 15.3777 81.8207 14.7608 81.5419 14.227C81.1521 13.4464 80.5851 12.8433 79.8586 12.3998C79.1321 11.974 78.2638 11.7434 77.236 11.7434C76.1551 11.7434 75.216 11.974 74.4009 12.453C73.5858 12.9142 72.9479 13.5706 72.5049 14.4221ZM116.06 26.2011C114.536 26.2011 113.154 25.8286 111.931 25.0658C110.691 24.303 109.716 23.2741 109.008 21.9614C108.299 20.6486 107.944 19.1763 107.944 17.5442C107.944 15.9122 108.299 14.4398 109.008 13.1271C109.716 11.8144 110.691 10.7677 111.914 10.0049C113.136 9.22441 114.518 8.85188 116.06 8.85188C117.318 8.85188 118.452 9.11798 119.444 9.65016C120.315 10.1171 121.036 10.7343 121.606 11.5017V9.20667H124.796V25.8641H121.606V25.8463V23.6178C121.042 24.3853 120.341 24.9941 119.48 25.456C118.488 25.935 117.354 26.2011 116.06 26.2011ZM116.592 23.2031C118.151 23.2031 119.427 22.6709 120.384 21.6066C121.34 20.5422 121.819 19.1763 121.819 17.5265C121.819 16.3734 121.606 15.38 121.163 14.5285C120.738 13.677 120.118 13.0029 119.32 12.524C118.523 12.045 117.602 11.7966 116.556 11.7966C115.511 11.7966 114.572 12.045 113.774 12.5417C112.977 13.0384 112.339 13.7125 111.878 14.564C111.417 15.4155 111.187 16.3912 111.187 17.491C111.187 18.6086 111.417 19.602 111.878 20.4535C112.339 21.305 112.977 21.9791 113.792 22.4758C114.607 22.9725 115.546 23.2031 116.592 23.2031ZM129.562 5.25076C129.934 5.64103 130.413 5.83616 130.997 5.83616C131.582 5.83616 132.061 5.64103 132.433 5.25076C132.805 4.8605 133 4.38153 133 3.79612C133 3.22846 132.805 2.76723 132.433 2.37697C132.061 1.9867 131.582 1.79156 130.997 1.79156C130.413 1.79156 129.934 1.9867 129.562 2.37697C129.19 2.76723 128.995 3.22846 128.995 3.79612C128.995 4.38153 129.19 4.8605 129.562 5.25076ZM129.42 9.18893V25.8463H132.575V9.18893H129.42Z" fill="#F2F2F2"/>
<path fill-rule="evenodd" clip-rule="evenodd" d="M33.8049 35C32.8657 34.9823 31.9266 34.8403 31.0229 34.5565C30.2964 34.3436 29.6939 33.8292 29.3749 33.1551C27.603 29.5717 28.1523 25.3142 30.7748 22.3163C31.8911 21.039 32.6885 19.5844 33.167 17.9878C33.3619 17.3492 33.5036 16.6751 33.5745 16.0188C33.858 13.6062 33.415 11.2114 32.2632 9.06488C30.7748 6.31526 28.3117 4.29296 25.3348 3.40598C24.2539 3.08667 23.1376 2.90927 22.0212 2.90927C20.8872 2.90927 19.7708 3.08667 18.6899 3.40598C15.6953 4.3107 13.2322 6.31526 11.7615 9.06488C10.6097 11.2114 10.149 13.6062 10.4503 16.0188C10.5389 16.6929 10.6629 17.3492 10.8578 17.9878C11.3362 19.5844 12.1513 21.0568 13.25 22.3163C15.8725 25.3142 16.4218 29.554 14.6498 33.1374C14.3132 33.8115 13.7107 34.3259 12.9665 34.5565C12.0805 34.8226 11.1413 34.9823 10.2022 34.9823L10.2022 34.9822C10.468 34.7871 10.7338 34.592 10.9641 34.3614C13.9942 31.5053 14.0119 27.4252 11.0527 24.2144C9.12127 22.0147 7.91634 19.3006 7.56194 16.3558C7.18983 13.3578 7.75685 10.3599 9.19215 7.68119C11.035 4.23973 14.1182 1.73847 17.8394 0.620882C19.1861 0.212874 20.5682 0.0177395 21.9504 0H22.039C23.4211 0.0177395 24.8032 0.212874 26.1499 0.620882C29.8888 1.73847 32.9543 4.23973 34.7972 7.68119C36.2325 10.3421 36.7995 13.3578 36.4274 16.3558C36.073 19.2828 34.868 21.9969 32.9189 24.2144C29.9597 27.4252 29.9951 31.5053 33.0075 34.3614C33.2733 34.6097 33.5213 34.8049 33.8049 35ZM24.0769 25.7577C24.1832 27.4962 24.7502 29.146 25.6894 30.5651C25.1755 26.9817 26.2387 23.2742 28.6131 20.4891C29.4637 19.5311 30.0662 18.4136 30.4383 17.1895C31.1293 14.9189 30.8813 12.4353 29.7649 10.3776C28.6486 8.28431 26.7703 6.75873 24.4844 6.06689C23.6871 5.83627 22.8542 5.69435 22.0037 5.69435H21.9328C21.1 5.69435 20.2494 5.81853 19.452 6.06689C17.1839 6.74099 15.3056 8.28431 14.1716 10.3776C13.0729 12.4531 12.8249 14.9366 13.4982 17.1895C13.8703 18.4136 14.4728 19.5311 15.3233 20.4891C17.7509 23.2564 18.8141 26.964 18.3003 30.5651C19.2394 29.146 19.8064 27.4962 19.9127 25.7577C20.0899 23.1323 19.2217 20.5778 17.4852 18.591C15.8549 16.7106 15.536 13.961 16.7232 11.7613C17.4851 10.3421 18.761 9.29547 20.3026 8.83424C20.8519 8.67459 21.4189 8.58589 22.0037 8.58589C22.5707 8.58589 23.1377 8.67459 23.6871 8.83424C25.2287 9.31321 26.5045 10.3421 27.2664 11.7613C28.4537 13.961 28.1524 16.7106 26.5045 18.591C24.768 20.5778 23.8997 23.1145 24.0769 25.7577ZM33.9287 29.3234H33.9288C35.1515 29.3234 36.321 28.8089 37.1361 27.851C37.3487 27.6204 37.5259 27.4252 37.6854 27.2124C38.8549 25.74 39.8295 24.108 40.556 22.3695C40.6977 21.997 40.6978 21.589 40.5206 21.2164C40.3434 20.8616 40.0067 20.5778 39.6168 20.4536C39.4751 20.4181 39.3333 20.4004 39.1916 20.4004C38.6068 20.4004 38.093 20.7374 37.8626 21.2696C37.2424 22.7597 36.4096 24.1612 35.3995 25.4207C35.317 25.524 35.2284 25.6273 35.1338 25.7377L35.1335 25.738L35.1332 25.7383L35.133 25.7386C35.0654 25.8174 34.9948 25.8998 34.9211 25.9883C34.0174 26.9817 33.539 28.1526 33.539 29.3056C33.6807 29.3234 33.8047 29.3234 33.9287 29.3234ZM34.9034 32.3746C35.6831 33.1019 36.6931 33.5099 37.774 33.5099C38.7309 33.5099 39.67 33.1729 40.432 32.6052C40.7686 32.3036 41.0876 31.9843 41.3888 31.6473C41.4888 31.5257 41.5859 31.41 41.68 31.2977L41.6812 31.2963L41.6813 31.2962C41.8205 31.1303 41.9533 30.9719 42.0799 30.8135C42.7001 30.0507 43.2671 29.2347 43.7987 28.4009C44.0291 28.0639 44.0822 27.6381 43.9759 27.2479C43.8696 26.8576 43.6215 26.5383 43.2494 26.3431C43.0368 26.2367 42.8241 26.1835 42.5938 26.1835C42.0976 26.1835 41.6192 26.4496 41.3534 26.8753C40.8927 27.6027 40.3788 28.33 39.8295 29.0041C39.7724 29.0716 39.7154 29.1406 39.6574 29.2107C39.5174 29.3801 39.3722 29.5558 39.2093 29.7314C38.0398 31.0796 36.4096 31.9133 34.6376 32.0907C34.7084 32.1794 34.8147 32.2858 34.9033 32.3744L34.9034 32.3746ZM10.0604 29.3233C8.83769 29.3233 7.68591 28.7912 6.88852 27.8864L6.79867 27.78L6.79866 27.78C6.6384 27.5899 6.48881 27.4126 6.33921 27.2478C5.15199 25.7755 4.1774 24.1434 3.46861 22.4049C3.30913 22.0324 3.32686 21.6244 3.50405 21.2519C3.68125 20.8793 4.00021 20.5955 4.39004 20.4891C4.5318 20.4536 4.67356 20.4181 4.81532 20.4181C5.40007 20.4181 5.91394 20.7552 6.1443 21.2873C6.76449 22.7775 7.59731 24.1789 8.60734 25.4384C8.74909 25.6158 8.89086 25.7932 9.06805 25.9883C9.97176 26.9817 10.4502 28.1525 10.4502 29.3056C10.3262 29.3233 10.1845 29.3233 10.0604 29.3233H10.0604ZM3.59279 32.5874C4.33702 33.1906 5.27617 33.5099 6.23304 33.5099C7.31394 33.5099 8.34168 33.1019 9.12135 32.3746L9.12148 32.3744C9.21004 32.2858 9.29859 32.1971 9.38715 32.0907C7.6329 31.9133 5.98496 31.0796 4.81546 29.7314C4.67959 29.5744 4.55605 29.4237 4.43756 29.279C4.35517 29.1785 4.27522 29.0809 4.19527 28.9863C3.64596 28.3122 3.13208 27.6026 2.67136 26.8576C2.40557 26.4318 1.92714 26.1657 1.43098 26.1657C1.20063 26.1657 0.987988 26.219 0.775351 26.3254C0.420956 26.5205 0.155164 26.8398 0.048846 27.2301C-0.0574724 27.6204 0.0134065 28.0284 0.226043 28.3832C0.739916 29.2169 1.32467 30.033 1.94486 30.7958L1.94488 30.7958C2.15751 31.0619 2.37013 31.3279 2.63592 31.6295C2.91944 31.9666 3.25612 32.2859 3.59279 32.5874Z" fill="url(#paint0_linear_557_2584)"/>
</g>
<defs>
<linearGradient id="paint0_linear_557_2584" x1="22.117" y1="34.8806" x2="22.117" y2="1.0015e-06" gradientUnits="userSpaceOnUse">
<stop stop-color="#66DDD7"/>
<stop offset="1" stop-color="#8A43FF"/>
</linearGradient>
<clipPath id="clip0_557_2584">
<rect width="133" height="35" fill="white"/>
</clipPath>
</defs>
</svg>
